<svg xmlns="http://www.w3.org/2000/svg" viewBox="0 0 240 240" width="240" height="240" role="img" aria-label="Charleston">
<defs>
<style>
@import url('https://fonts.googleapis.com/css2?family=Yellowtail&amp;family=EB+Garamond:wght@600&amp;display=swap');
.script{font-family:'Yellowtail','Segoe Script',cursive;fill:#3B5C41}
.sub{font-family:'EB Garamond',Georgia,serif;fill:#3B5C41;letter-spacing:2.5px;font-weight:600}
</style>
<clipPath id="disc"><circle cx="120" cy="120" r="84"/></clipPath>
</defs>
<g fill="#3B5C41"><circle cx="215.0" cy="120.0" r="15"/><circle cx="209.3" cy="152.5" r="15"/><circle cx="192.8" cy="181.1" r="15"/><circle cx="167.5" cy="202.3" r="15"/><circle cx="136.5" cy="213.6" r="15"/><circle cx="103.5" cy="213.6" r="15"/><circle cx="72.5" cy="202.3" r="15"/><circle cx="47.2" cy="181.1" r="15"/><circle cx="30.7" cy="152.5" r="15"/><circle cx="25.0" cy="120.0" r="15"/><circle cx="30.7" cy="87.5" r="15"/><circle cx="47.2" cy="58.9" r="15"/><circle cx="72.5" cy="37.7" r="15"/><circle cx="103.5" cy="26.4" r="15"/><circle cx="136.5" cy="26.4" r="15"/><circle cx="167.5" cy="37.7" r="15"/><circle cx="192.8" cy="58.9" r="15"/><circle cx="209.3" cy="87.5" r="15"/></g>
<circle cx="120" cy="120" r="95" fill="#3B5C41"/>
<circle cx="120" cy="120" r="84" fill="#FBF6E4"/>
<g clip-path="url(#disc)"><rect x="40" y="30" width="7" height="180" fill="#EAD98A" opacity="0.55"/><rect x="54" y="30" width="7" height="180" fill="#EAD98A" opacity="0.55"/><rect x="68" y="30" width="7" height="180" fill="#EAD98A" opacity="0.55"/><rect x="82" y="30" width="7" height="180" fill="#EAD98A" opacity="0.55"/><rect x="96" y="30" width="7" height="180" fill="#EAD98A" opacity="0.55"/><rect x="110" y="30" width="7" height="180" fill="#EAD98A" opacity="0.55"/><rect x="124" y="30" width="7" height="180" fill="#EAD98A" opacity="0.55"/><rect x="138" y="30" width="7" height="180" fill="#EAD98A" opacity="0.55"/><rect x="152" y="30" width="7" height="180" fill="#EAD98A" opacity="0.55"/><rect x="166" y="30" width="7" height="180" fill="#EAD98A" opacity="0.55"/><rect x="180" y="30" width="7" height="180" fill="#EAD98A" opacity="0.55"/><rect x="194" y="30" width="7" height="180" fill="#EAD98A" opacity="0.55"/></g>
<circle cx="120" cy="120" r="78" fill="none" stroke="#3B5C41" stroke-width="2.5"/>
<text x="120" y="126" text-anchor="middle" class="script" font-size="54">Charleston</text>
<g stroke="#3B5C41" stroke-width="1.4" opacity="0.8"><line x1="52" y1="150" x2="74" y2="150"/><line x1="166" y1="150" x2="188" y2="150"/></g>
<text x="120" y="154" text-anchor="middle" class="sub" font-size="11">MAHJONG TRAINER CRM</text>
</svg>